# xmcd
#
# Track frame offsets:
#	150
#	14872
#	28415
#	43857
#	65575
#	79622
#	91937
#	106752
#	121652
#	136560
#	150185
#
# Disc length: 2158 seconds
#
# Revision: 1
# Processed by: cddbd v1.5.2PL0 Copyright (c) Steve Scherf et al.
# Submitted via: EZCDAudioConverter 6.0.5.1
#
DISCID=80086c0b
DTITLE=Diamond Rio - Close to the Edge
DYEAR=1992
DGENRE=Country
TTITLE0=Oh Me, Oh My, Sweet Baby
TTITLE1=In a Week or Two
TTITLE2=It Does Get Better Than This
TTITLE3=Sawmill Road
TTITLE4=Calling All Hearts (Come Back Home)
TTITLE5=This Romeo Ain't Got Julie Yet
TTITLE6=I Was Meant to Be With You
TTITLE7=Old Weakness (Coming on Strong)
TTITLE8=Demons and Angels
TTITLE9=Nothing in This World
TTITLE10=Close to the Edge
EXTD=
EXTT0=
EXTT1=
EXTT2=
EXTT3=
EXTT4=
EXTT5=
EXTT6=
EXTT7=
EXTT8=
EXTT9=
EXTT10=
PLAYORDER=
